<svg xmlns="http://www.w3.org/2000/svg" viewBox="0 0 512 512" width="512" height="512">
  <defs>
    <linearGradient id="bg" x1="0" y1="0" x2="1" y2="1">
      <stop offset="0%" stop-color="#2a2a2e"/>
      <stop offset="100%" stop-color="#1e1e22"/>
    </linearGradient>
  </defs>

  <!-- Rounded square background -->
  <rect width="512" height="512" rx="112" fill="url(#bg)"/>

  <!-- Gear (mint-green, 8 teeth) -->
  <path fill-rule="evenodd"
        fill="#4ade80"
        d="M 211.646,130.487 L 225.397,84.631 L 286.603,84.631 L 300.354,130.487 L 313.388,135.885 L 355.537,113.185 L 398.815,156.463 L 376.115,198.612 L 381.513,211.646 L 427.369,225.397 L 427.369,286.603 L 381.513,300.354 L 376.115,313.388 L 398.815,355.537 L 355.537,398.815 L 313.388,376.115 L 300.354,381.513 L 286.603,427.369 L 225.397,427.369 L 211.646,381.513 L 198.612,376.115 L 156.463,398.815 L 113.185,355.537 L 135.885,313.388 L 130.487,300.354 L 84.631,286.603 L 84.631,225.397 L 130.487,211.646 L 135.885,198.612 L 113.185,156.463 L 156.463,113.185 L 198.612,135.885 Z M 322.239,249.476 L 321.281,243.015 L 319.694,236.679 L 317.493,230.529 L 314.701,224.624 L 311.343,219.021 L 307.452,213.775 L 303.065,208.935 L 298.225,204.548 L 292.979,200.657 L 287.376,197.299 L 281.471,194.507 L 275.321,192.306 L 268.985,190.719 L 262.524,189.761 L 256.000,189.440 L 249.476,189.761 L 243.015,190.719 L 236.679,192.306 L 230.529,194.507 L 224.624,197.299 L 219.021,200.657 L 213.775,204.548 L 208.935,208.935 L 204.548,213.775 L 200.657,219.021 L 197.299,224.624 L 194.507,230.529 L 192.306,236.679 L 190.719,243.015 L 189.761,249.476 L 189.440,256.000 L 189.761,262.524 L 190.719,268.985 L 192.306,275.321 L 194.507,281.471 L 197.299,287.376 L 200.657,292.979 L 204.548,298.225 L 208.935,303.065 L 213.775,307.452 L 219.021,311.343 L 224.624,314.701 L 230.529,317.493 L 236.679,319.694 L 243.015,321.281 L 249.476,322.239 L 256.000,322.560 L 262.524,322.239 L 268.985,321.281 L 275.321,319.694 L 281.471,317.493 L 287.376,314.701 L 292.979,311.343 L 298.225,307.452 L 303.065,303.065 L 307.452,298.225 L 311.343,292.979 L 314.701,287.376 L 317.493,281.471 L 319.694,275.321 L 321.281,268.985 L 322.239,262.524 L 322.560,256.000 Z"/>

  <!-- Subtle inner ring accent -->
  <circle cx="256.0" cy="256.0" r="69.12"
          fill="none" stroke="#4ade80" stroke-width="6.144" opacity="0.4"/>
</svg>